<?xml version="1.0" standalone="no"?>
<!DOCTYPE svg PUBLIC "-//W3C//DTD SVG 20010904//EN"
        "http://www.w3.org/TR/2001/REC-SVG-20010904/DTD/svg10.dtd">
<svg version="1.0" xmlns="http://www.w3.org/2000/svg"
     width="1280.000000pt" height="1280.000000pt" viewBox="0 0 1280.000000 1280.000000"
     preserveAspectRatio="xMidYMid meet">
    <metadata>
        Created by potrace 1.11, written by Peter Selinger 2001-2013
    </metadata>
    <g transform="translate(0.000000,1280.000000) scale(0.100000,-0.100000)"
       fill="#000000" stroke="none">
        <path d="M6149 11096 c-2 -2 -47 -7 -99 -10 -144 -10 -242 -21 -330 -36 -30
-5 -73 -11 -95 -14 -22 -3 -94 -17 -160 -31 -66 -14 -131 -28 -144 -31 -14 -3
-28 -7 -31 -9 -4 -2 -22 -7 -41 -10 -51 -9 -344 -96 -409 -122 -8 -3 -19 -7
-25 -9 -27 -7 -223 -86 -245 -98 -14 -8 -27 -14 -30 -14 -17 2 -340 -159 -477
-239 -322 -185 -621 -409 -896 -673 -97 -92 -167 -164 -222 -225 -15 -16 -44
-48 -64 -70 -59 -66 -123 -144 -204 -250 -42 -55 -80 -104 -84 -110 -5 -5 -40
-57 -79 -115 -331 -490 -564 -1031 -693 -1610 -31 -139 -56 -274 -66 -365 -3
-27 -7 -61 -10 -75 -4 -29 -11 -91 -22 -205 -10 -100 -9 -655 0 -750 4 -38 10
-95 13 -125 3 -30 7 -66 9 -80 2 -14 6 -47 10 -75 6 -56 28 -188 40 -245 3
-14 8 -38 11 -54 2 -16 6 -32 8 -35 2 -3 7 -22 10 -41 8 -52 12 -69 30 -135 9
-33 24 -85 32 -115 169 -624 530 -1291 973 -1800 167 -192 393 -413 546 -535
28 -22 52 -42 55 -45 9 -10 184 -145 201 -155 9 -5 70 -46 135 -91 230 -156
518 -313 769 -418 61 -26 119 -50 130 -55 74 -33 261 -95 455 -152 87 -25 249
-63 320 -75 19 -3 38 -8 41 -9 3 -2 28 -7 55 -11 27 -3 58 -8 69 -10 11 -3 38
-7 59 -10 22 -3 42 -7 45 -9 4 -2 42 -6 86 -10 44 -4 89 -9 100 -11 149 -31
845 -24 1070 11 17 2 53 7 80 10 28 3 70 10 95 15 25 5 63 12 84 15 21 3 48 7
60 10 12 3 32 7 46 9 73 14 275 64 370 92 167 50 365 121 520 187 14 6 27 11
30 12 62 21 383 184 510 260 448 266 777 539 1165 966 119 131 465 606 465
638 0 6 5 11 10 11 6 0 10 4 10 9 0 4 23 48 51 97 80 138 211 406 269 549 28
72 56 139 61 150 31 70 154 483 175 589 19 96 55 289 59 321 4 22 8 51 10 65
2 14 7 52 11 85 3 33 8 67 9 75 27 151 26 881 -1 1015 -2 11 -6 38 -9 60 -11
98 -17 139 -41 275 -134 748 -470 1486 -949 2080 -184 230 -348 401 -576 606
-159 143 -468 369 -660 483 -243 146 -457 252 -699 347 -63 25 -124 50 -135
54 -143 62 -560 171 -820 215 -22 4 -49 9 -60 10 -31 6 -174 24 -235 30 -30 3
-71 8 -90 11 -42 6 -655 15 -661 10z m2856 -1664 c58 -18 82 -34 100 -65 11
-18 18 -33 17 -35 -1 -1 -8 -15 -16 -31 -8 -15 -34 -57 -58 -92 -113 -170
-215 -397 -588 -1309 -149 -366 -278 -678 -285 -695 -8 -16 -57 -136 -110
-265 -54 -129 -103 -248 -110 -265 -8 -16 -75 -176 -150 -355 -148 -350 -304
-714 -340 -795 -12 -27 -44 -99 -70 -160 -26 -60 -58 -132 -70 -160 -12 -27
-56 -126 -98 -220 -41 -93 -92 -206 -112 -250 -20 -44 -46 -100 -57 -125 -11
-25 -40 -87 -64 -139 -24 -51 -44 -95 -44 -96 0 -2 -22 -50 -49 -107 -346
-734 -613 -1232 -787 -1468 -199 -270 -488 -418 -794 -405 -105 4 -143 10
-201 30 -21 8 -39 12 -39 9 0 -8 -145 69 -200 107 -162 112 -282 282 -419 592
-12 26 -30 66 -40 90 -24 54 -134 355 -156 427 -59 197 -139 483 -150 538 -1
9 -10 44 -18 77 -9 33 -32 134 -52 225 -19 91 -40 185 -45 210 -5 25 -12 61
-15 80 -3 19 -12 67 -20 105 -13 64 -43 231 -50 280 -13 79 -16 103 -21 125
-12 64 -30 183 -39 255 -4 28 -8 57 -10 65 -3 8 -7 40 -10 70 -3 30 -10 84
-15 120 -9 63 -14 101 -25 205 -4 28 -8 64 -11 80 -3 17 -7 57 -9 90 -3 33 -7
83 -11 110 -12 96 -14 131 -19 269 -3 120 -1 146 15 190 37 96 99 130 190 106
46 -12 106 -67 239 -215 148 -165 411 -422 581 -565 106 -90 426 -320 445
-320 2 0 41 -22 87 -48 193 -111 408 -200 698 -290 89 -28 384 -99 443 -107
44 -6 55 -16 24 -21 -7 -1 -25 -5 -42 -8 -60 -13 -102 -17 -200 -18 -100 -1
-268 8 -315 17 -34 7 -100 17 -130 20 -14 1 -43 7 -65 13 -22 6 -52 13 -66 16
-41 7 -175 45 -284 81 -262 86 -664 285 -850 421 -16 12 -40 25 -52 28 -19 6
-23 2 -29 -29 -4 -21 -4 -89 0 -153 4 -65 9 -151 11 -192 5 -101 14 -204 30
-355 2 -22 7 -71 10 -110 3 -38 8 -83 10 -100 2 -16 6 -50 10 -75 3 -25 8 -63
10 -85 3 -22 7 -58 10 -80 2 -22 9 -71 14 -110 33 -228 83 -520 116 -670 8
-38 18 -83 21 -100 3 -16 22 -100 44 -185 85 -337 170 -563 257 -682 195 -268
530 27 999 879 79 143 334 652 393 783 19 41 51 111 71 155 59 125 84 181 189
418 92 207 573 1307 718 1642 36 83 73 168 83 190 10 22 61 141 114 265 54
124 106 245 118 270 11 24 24 55 29 67 5 13 44 105 88 205 43 101 152 352 241
558 347 803 384 884 422 921 69 66 195 128 313 154 64 14 201 12 250 -3z"/>
    </g>
</svg>
